<?xml version="1.0" encoding="UTF-8" standalone="no"?>
<!DOCTYPE svg PUBLIC "-//W3C//DTD SVG 1.1//EN" "http://www.w3.org/Graphics/SVG/1.1/DTD/svg11.dtd">
<svg xmlns="http://www.w3.org/2000/svg" version="1.1" viewBox="0.00 0.00 512.00 512.00">
<g stroke-width="2.00" fill="none" stroke-linecap="butt">
<path stroke="#4c6e3e" vector-effect="non-scaling-stroke" d="
  M 287.59 488.21
  L 280.95 376.33
  Q 280.92 375.69 280.28 375.69
  L 264.04 375.69
  Q 263.49 375.69 263.49 376.24
  Q 263.44 420.04 263.57 463.63
  Q 263.57 463.78 263.63 463.92
  Q 263.71 464.07 263.67 464.27"
/>
<path stroke="#4c6e3e" vector-effect="non-scaling-stroke" d="
  M 248.31 463.80
  L 248.47 376.36
  Q 248.47 375.70 247.81 375.70
  L 231.37 375.68
  Q 230.99 375.68 230.97 376.06
  L 224.44 487.64"
/>
<path stroke="#803f49" vector-effect="non-scaling-stroke" d="
  M 285.32 26.04
  C 286.06 24.16 287.34 21.94 287.04 19.92
  C 286.53 16.35 283.23 14.16 279.73 15.33
  Q 268.67 19.06 258.49 22.42
  A 7.89 7.85 -44.8 0 1 253.54 22.42
  Q 243.04 18.97 232.34 15.36
  C 228.08 13.92 223.49 17.90 225.20 22.30
  Q 227.61 28.49 230.24 34.99
  Q 230.48 35.60 231.11 35.82
  Q 245.47 40.81 256.44 50.95
  Q 256.86 51.34 257.30 50.95
  Q 267.68 41.66 280.70 36.39
  Q 281.27 36.16 281.50 35.60
  Q 283.42 30.96 285.32 26.04"
/>
<path stroke="#4c6e3e" vector-effect="non-scaling-stroke" d="
  M 184.04 65.03
  C 174.92 53.52 162.35 44.07 148.38 39.73
  Q 147.81 39.55 147.79 40.15
  Q 147.19 56.21 153.60 72.10
  A 0.53 0.52 -16.1 0 0 154.19 72.42
  Q 161.57 71.04 168.04 74.65
  C 176.17 79.19 179.17 86.90 178.64 96.02
  Q 178.59 96.87 179.33 96.46
  Q 184.68 93.49 190.12 93.10
  Q 190.79 93.06 190.52 92.44
  Q 184.83 79.46 184.44 66.13
  A 1.89 1.85 -65.6 0 0 184.04 65.03"
/>
<path stroke="#4c6e3e" vector-effect="non-scaling-stroke" d="
  M 320.92 92.55
  Q 320.71 92.99 321.19 93.02
  Q 327.06 93.35 332.63 96.45
  A 0.49 0.48 13.5 0 0 333.36 96.01
  C 333.05 89.72 334.16 83.73 338.45 79.04
  Q 346.14 70.64 357.69 72.35
  Q 358.26 72.44 358.48 71.90
  Q 364.73 56.30 364.23 40.11
  Q 364.21 39.48 363.61 39.69
  Q 342.25 46.94 327.91 65.12
  Q 327.57 65.54 327.55 66.09
  Q 327.05 79.72 320.92 92.55"
/>
<path stroke="#80303d" vector-effect="non-scaling-stroke" d="
  M 240.03 106.34
  L 255.31 111.42
  A 2.40 2.35 -44.4 0 0 256.84 111.42
  Q 265.82 108.35 275.80 105.15
  Q 282.76 102.91 290.49 106.26
  Q 291.00 106.48 291.43 106.12
  C 307.08 92.90 315.25 74.60 311.81 54.05
  C 310.99 49.16 307.20 46.66 302.26 46.92
  C 280.03 48.09 260.00 64.23 251.65 83.54
  Q 250.58 86.01 248.78 87.44
  Q 246.03 89.63 242.05 88.62"
/>
<path stroke="#803f49" vector-effect="non-scaling-stroke" d="
  M 242.05 88.62
  C 238.13 87.02 235.75 83.18 237.25 79.12
  C 239.35 73.42 242.57 67.99 246.31 62.87
  Q 246.71 62.33 246.20 61.88
  Q 229.84 47.26 208.00 46.92
  C 203.16 46.85 200.70 50.21 200.05 54.81
  C 197.27 74.61 204.15 93.74 219.56 106.79
  Q 219.97 107.14 220.44 106.87
  Q 227.21 102.99 235.17 104.95
  Q 237.51 105.53 240.03 106.34"
/>
<path stroke="#ff6f86" vector-effect="non-scaling-stroke" d="
  M 242.05 88.62
  Q 239.93 97.27 240.03 106.34"
/>
<path stroke="#803f49" vector-effect="non-scaling-stroke" d="
  M 146.42 130.20
  Q 146.79 130.34 146.97 129.98
  Q 153.22 117.25 163.23 107.62
  Q 163.75 107.13 163.74 106.42
  Q 163.68 100.11 163.71 93.20
  C 163.73 88.38 158.61 84.85 154.56 88.32
  Q 145.63 95.98 137.18 103.14
  Q 135.40 104.65 132.97 104.81
  Q 121.78 105.55 110.37 106.26
  C 105.61 106.55 103.49 112.23 106.75 115.64
  Q 111.39 120.50 116.07 125.31
  Q 116.44 125.70 116.97 125.67
  Q 131.81 124.80 146.42 130.20"
/>
<path stroke="#803f49" vector-effect="non-scaling-stroke" d="
  M 376.78 104.31
  Q 375.64 103.81 374.71 103.03
  Q 367.04 96.61 358.29 89.00
  C 355.95 86.97 353.38 86.15 350.55 88.16
  Q 348.35 89.74 348.33 92.74
  Q 348.27 99.81 348.27 106.53
  Q 348.27 107.12 348.70 107.53
  Q 358.88 117.42 364.93 129.79
  Q 365.20 130.35 365.79 130.13
  Q 380.14 124.83 394.96 125.66
  Q 395.58 125.69 396.01 125.24
  Q 400.54 120.54 405.13 115.78
  C 407.43 113.40 407.39 109.77 404.91 107.60
  Q 403.40 106.27 400.39 106.12
  Q 389.13 105.55 378.41 104.72
  A 5.15 5.11 -30.7 0 1 376.78 104.31"
/>
<path stroke="#80303d" vector-effect="non-scaling-stroke" d="
  M 185.84 153.42
  C 187.79 143.74 196.61 137.30 206.03 136.20
  Q 206.57 136.14 206.52 135.61
  Q 205.72 125.87 201.53 117.40
  C 198.54 111.37 195.21 105.39 187.01 109.30
  C 172.35 116.29 161.52 130.37 156.89 145.24
  Q 148.16 173.24 165.73 196.12
  A 0.54 0.53 -26.8 0 0 166.30 196.30
  Q 177.73 193.08 186.18 185.38
  Q 186.52 185.07 186.41 184.63
  Q 182.64 169.25 185.84 153.42"
/>
<path stroke="#803f49" vector-effect="non-scaling-stroke" d="
  M 353.00 139.65
  C 347.73 126.94 337.95 115.52 324.89 109.24
  C 318.35 106.09 314.39 109.64 311.52 115.19
  Q 306.21 125.47 305.48 135.52
  Q 305.44 136.10 306.01 136.20
  Q 323.01 139.15 326.39 155.04
  Q 329.28 168.56 325.46 184.45
  Q 325.33 184.96 325.72 185.31
  Q 334.31 193.10 345.61 196.27
  Q 346.11 196.41 346.43 195.99
  Q 365.66 170.19 353.00 139.65"
/>
<path stroke="#803f49" vector-effect="non-scaling-stroke" d="
  M 281.39 139.98
  C 283.49 135.88 285.04 131.01 286.63 126.94
  C 288.36 122.51 284.42 118.02 279.87 119.56
  Q 269.36 123.11 258.10 126.76
  A 6.96 6.90 44.9 0 1 253.79 126.75
  Q 244.47 123.67 234.71 120.36
  Q 231.13 119.15 229.66 119.34
  C 226.52 119.74 223.86 123.28 225.15 126.49
  Q 227.65 132.73 230.25 139.30
  Q 230.46 139.84 231.01 140.03
  Q 245.33 144.97 256.39 155.15
  Q 256.86 155.58 257.33 155.16
  Q 267.87 145.80 280.64 140.66
  Q 281.15 140.46 281.39 139.98"
/>
<path stroke="#803f49" vector-effect="non-scaling-stroke" d="
  M 148.82 197.86
  C 138.99 182.06 136.75 163.26 141.38 144.92
  A 0.59 0.57 -72.9 0 0 141.03 144.24
  Q 121.70 136.96 101.07 144.09
  C 96.95 145.52 94.07 148.84 95.07 153.35
  C 100.89 179.41 121.79 197.00 148.42 198.52
  Q 149.26 198.57 148.82 197.86"
/>
<path stroke="#80303d" vector-effect="non-scaling-stroke" d="
  M 370.60 144.76
  C 375.20 163.13 373.05 182.16 363.18 197.90
  Q 362.79 198.52 363.52 198.49
  C 389.63 197.45 412.03 178.71 416.94 153.09
  C 417.73 148.94 415.22 145.68 411.43 144.30
  Q 390.90 136.83 370.86 144.27
  A 0.42 0.41 -17.2 0 0 370.60 144.76"
/>
<path stroke="#803f49" vector-effect="non-scaling-stroke" d="
  M 233.44 219.15
  C 230.34 200.71 235.14 181.85 246.54 166.94
  A 0.42 0.42 0.0 0 0 246.49 166.38
  Q 230.68 152.09 209.31 151.14
  C 203.52 150.88 200.84 153.69 200.03 159.33
  C 196.32 184.87 209.57 208.58 233.03 219.46
  Q 233.53 219.70 233.44 219.15"
/>
<path stroke="#80303d" vector-effect="non-scaling-stroke" d="
  M 283.58 155.71
  C 257.56 167.97 241.40 194.49 249.73 223.43
  A 0.95 0.94 84.5 0 0 250.55 224.11
  Q 265.57 225.48 278.30 218.95
  C 301.24 207.18 316.02 184.69 311.86 158.53
  C 311.06 153.48 307.27 150.85 302.20 151.15
  Q 291.95 151.77 283.58 155.71"
/>
<path stroke="#4c6e3e" vector-effect="non-scaling-stroke" d="
  M 283.94 262.39
  C 291.59 252.06 300.48 244.19 311.17 237.89
  A 2.03 2.01 87.4 0 0 311.94 237.04
  L 327.19 205.29
  A 0.40 0.39 -60.1 0 0 327.06 204.79
  L 319.67 199.87
  Q 319.39 199.69 319.23 199.97
  C 307.88 219.82 287.37 235.81 264.13 238.79
  Q 263.50 238.87 263.50 239.50
  L 263.50 296.01
  Q 263.50 296.51 264.01 296.51
  L 282.73 296.52
  Q 283.36 296.52 283.64 295.94
  L 291.86 278.84
  A 0.68 0.68 0.0 0 0 291.54 277.93
  C 285.28 274.89 277.92 270.52 283.94 262.39"
/>
<path stroke="#4c6e3e" vector-effect="non-scaling-stroke" d="
  M 192.21 200.47
  Q 192.02 200.13 191.69 200.34
  L 184.94 204.75
  A 0.40 0.40 0.0 0 0 184.79 205.26
  L 200.05 237.02
  A 2.22 2.18 2.7 0 0 200.92 237.96
  Q 216.83 247.17 228.04 262.35
  Q 229.55 264.38 230.08 266.61
  C 231.57 272.88 224.27 275.74 220.21 278.21
  A 0.37 0.37 0.0 0 0 220.07 278.69
  L 228.37 295.95
  Q 228.64 296.51 229.26 296.51
  L 247.99 296.52
  Q 248.50 296.52 248.50 296.01
  L 248.50 239.54
  Q 248.50 239.05 248.01 238.98
  Q 210.71 233.73 192.21 200.47"
/>
<path stroke="#4c6e3e" vector-effect="non-scaling-stroke" d="
  M 184.30 246.43
  Q 151.89 233.14 119.87 247.47
  Q 119.33 247.71 119.73 248.15
  C 142.98 273.34 179.81 280.49 211.04 266.03
  Q 211.55 265.80 211.17 265.39
  Q 199.83 252.80 184.30 246.43"
/>
<path stroke="#4c6e3e" vector-effect="non-scaling-stroke" d="
  M 391.98 247.50
  Q 375.99 239.93 359.05 240.09
  Q 326.70 240.39 303.61 262.37
  Q 302.15 263.76 300.92 265.34
  Q 300.56 265.80 301.09 266.05
  C 331.16 280.36 369.80 273.45 392.13 248.22
  Q 392.54 247.76 391.98 247.50"
/>
<path stroke="#3c663f" vector-effect="non-scaling-stroke" d="
  M 184.08 288.67
  C 177.19 297.92 172.32 308.63 170.28 319.99
  A 0.28 0.28 0.0 0 0 170.59 320.32
  Q 186.44 318.68 199.91 311.23
  Q 200.42 310.95 200.51 310.38
  Q 202.04 300.36 211.71 297.12
  Q 212.21 296.95 211.98 296.48
  L 206.30 284.68
  Q 206.03 284.11 205.44 284.30
  Q 195.27 287.45 184.97 288.19
  Q 184.41 288.23 184.08 288.67"
/>
<path stroke="#3c663f" vector-effect="non-scaling-stroke" d="
  M 305.68 284.70
  L 300.08 296.36
  A 0.58 0.58 0.0 0 0 300.41 297.16
  Q 310.07 300.50 311.51 310.51
  Q 311.57 310.93 311.95 311.14
  Q 325.64 318.69 341.13 320.30
  Q 341.82 320.37 341.68 319.69
  Q 338.35 302.72 327.98 288.75
  A 1.37 1.37 0.0 0 0 326.96 288.19
  Q 316.91 287.48 306.55 284.30
  Q 305.96 284.12 305.68 284.70"
/>
<path stroke="#796980" vector-effect="non-scaling-stroke" d="
  M 256.60 343.58
  C 245.84 343.58 246.04 328.59 256.27 328.58
  Q 276.29 328.57 296.00 328.57
  Q 296.58 328.57 296.58 327.99
  L 296.58 311.93
  A 0.41 0.41 0.0 0 0 296.17 311.52
  L 215.95 311.51
  A 0.55 0.55 0.0 0 0 215.40 312.06
  L 215.40 328.14
  A 0.45 0.44 89.4 0 0 215.85 328.59
  Q 219.77 328.54 223.61 328.61
  C 233.87 328.79 233.68 343.99 222.64 343.63
  Q 219.24 343.52 215.92 343.59
  Q 215.39 343.60 215.39 344.13
  L 215.40 360.05
  A 0.65 0.64 -0.0 0 0 216.05 360.69
  L 295.95 360.68
  Q 296.58 360.68 296.58 360.05
  L 296.58 344.20
  Q 296.58 343.61 295.99 343.61
  Q 277.57 343.58 256.60 343.58"
/>
</g>
<path fill="#000000" d="
  M 228.13 0.00
  L 232.25 0.00
  Q 235.44 0.61 236.75 1.04
  Q 245.95 4.04 255.32 7.23
  A 2.08 2.05 -44.1 0 0 256.59 7.24
  L 279.85 0.00
  L 283.98 0.00
  Q 295.91 2.08 300.26 11.98
  C 303.24 18.74 302.27 25.12 299.25 31.59
  A 0.37 0.37 0.0 0 0 299.62 32.12
  Q 317.00 30.35 324.75 45.43
  Q 325.04 45.99 325.50 45.56
  C 337.39 34.48 351.19 26.86 367.13 23.21
  C 374.20 21.59 377.62 24.60 378.47 31.60
  C 380.46 48.13 378.15 64.68 371.37 79.73
  Q 371.12 80.29 371.59 80.69
  L 382.01 89.58
  Q 382.43 89.94 382.98 89.99
  Q 389.67 90.59 396.63 90.85
  Q 404.69 91.15 408.80 92.70
  C 420.10 96.95 425.42 111.05 419.17 121.79
  Q 416.99 125.52 413.50 128.59
  A 0.41 0.40 32.4 0 0 413.66 129.28
  C 427.13 133.13 434.74 144.12 431.20 158.38
  C 421.21 198.63 381.61 221.45 341.81 210.87
  Q 341.22 210.71 340.96 211.26
  L 332.91 228.01
  Q 332.54 228.80 333.37 228.56
  C 358.06 221.67 384.11 224.89 406.24 238.22
  C 409.36 240.09 411.85 242.83 411.14 246.76
  Q 410.71 249.09 407.83 252.81
  C 392.86 272.16 370.51 284.82 346.05 287.66
  Q 345.29 287.74 345.68 288.40
  C 352.07 299.29 355.94 311.10 357.50 323.98
  Q 358.07 328.60 356.94 331.20
  Q 355.23 335.14 350.74 335.41
  Q 332.07 336.52 312.20 328.06
  Q 311.61 327.81 311.60 328.45
  Q 311.55 342.81 311.64 358.18
  Q 311.67 363.25 310.40 366.05
  Q 306.37 374.94 296.52 375.67
  Q 295.97 375.71 296.00 376.27
  Q 299.70 439.13 303.46 502.00
  Q 303.94 510.13 297.21 512.00
  L 294.92 512.00
  Q 288.88 510.37 288.51 503.50
  Q 288.09 495.83 287.59 488.21
  L 280.95 376.33
  Q 280.92 375.69 280.28 375.69
  L 264.04 375.69
  Q 263.49 375.69 263.49 376.24
  Q 263.44 420.04 263.57 463.63
  Q 263.57 463.78 263.63 463.92
  Q 263.71 464.07 263.67 464.27
  Q 263.46 464.38 263.46 464.75
  Q 263.51 483.45 263.52 502.17
  Q 263.52 506.39 262.53 508.17
  Q 260.93 511.07 257.14 512.00
  L 254.76 512.00
  Q 248.54 510.14 248.53 502.75
  Q 248.50 483.44 248.51 464.13
  Q 248.51 464.02 248.40 463.91
  Q 248.35 463.86 248.31 463.80
  L 248.47 376.36
  Q 248.47 375.70 247.81 375.70
  L 231.37 375.68
  Q 230.99 375.68 230.97 376.06
  L 224.44 487.64
  Q 223.94 495.26 223.47 503.24
  Q 223.06 510.44 216.96 512.00
  L 214.68 512.00
  C 207.50 509.90 208.37 504.98 208.77 498.09
  Q 212.35 437.05 215.95 375.98
  A 0.29 0.29 0.0 0 0 215.67 375.67
  C 207.09 375.41 200.42 368.56 200.41 359.93
  Q 200.39 342.50 200.41 328.39
  Q 200.41 327.68 199.76 327.98
  Q 183.57 335.47 163.39 335.63
  Q 160.21 335.66 158.09 334.46
  Q 154.06 332.20 154.32 327.42
  C 155.06 313.66 159.39 300.48 166.35 288.28
  Q 166.67 287.72 166.03 287.65
  C 140.58 284.89 117.32 270.99 102.54 250.61
  C 98.06 244.43 102.24 240.08 107.72 237.00
  C 129.21 224.90 154.92 221.65 178.86 228.65
  A 0.29 0.29 0.0 0 0 179.20 228.24
  L 170.93 211.04
  A 0.55 0.55 0.0 0 0 170.28 210.75
  C 129.29 222.54 87.89 196.17 80.16 154.98
  C 77.92 143.08 86.36 132.60 97.97 129.42
  Q 99.04 129.13 98.23 128.36
  C 91.26 121.83 87.91 113.30 91.67 104.18
  Q 95.08 95.94 102.90 92.80
  Q 107.00 91.16 115.31 90.86
  Q 122.22 90.60 129.04 89.98
  Q 129.57 89.93 129.98 89.58
  L 140.43 80.68
  Q 140.86 80.31 140.64 79.79
  Q 130.53 56.79 133.49 32.20
  Q 134.05 27.63 135.33 25.79
  C 137.41 22.79 140.80 22.28 144.23 23.06
  C 160.68 26.81 174.40 34.23 186.29 45.39
  Q 186.81 45.88 187.14 45.24
  Q 194.68 30.42 212.32 32.11
  A 0.44 0.44 0.0 0 0 212.75 31.47
  C 205.58 17.63 212.85 2.46 228.13 0.00
  Z
  M 285.32 26.04
  C 286.06 24.16 287.34 21.94 287.04 19.92
  C 286.53 16.35 283.23 14.16 279.73 15.33
  Q 268.67 19.06 258.49 22.42
  A 7.89 7.85 -44.8 0 1 253.54 22.42
  Q 243.04 18.97 232.34 15.36
  C 228.08 13.92 223.49 17.90 225.20 22.30
  Q 227.61 28.49 230.24 34.99
  Q 230.48 35.60 231.11 35.82
  Q 245.47 40.81 256.44 50.95
  Q 256.86 51.34 257.30 50.95
  Q 267.68 41.66 280.70 36.39
  Q 281.27 36.16 281.50 35.60
  Q 283.42 30.96 285.32 26.04
  Z
  M 184.04 65.03
  C 174.92 53.52 162.35 44.07 148.38 39.73
  Q 147.81 39.55 147.79 40.15
  Q 147.19 56.21 153.60 72.10
  A 0.53 0.52 -16.1 0 0 154.19 72.42
  Q 161.57 71.04 168.04 74.65
  C 176.17 79.19 179.17 86.90 178.64 96.02
  Q 178.59 96.87 179.33 96.46
  Q 184.68 93.49 190.12 93.10
  Q 190.79 93.06 190.52 92.44
  Q 184.83 79.46 184.44 66.13
  A 1.89 1.85 -65.6 0 0 184.04 65.03
  Z
  M 320.92 92.55
  Q 320.71 92.99 321.19 93.02
  Q 327.06 93.35 332.63 96.45
  A 0.49 0.48 13.5 0 0 333.36 96.01
  C 333.05 89.72 334.16 83.73 338.45 79.04
  Q 346.14 70.64 357.69 72.35
  Q 358.26 72.44 358.48 71.90
  Q 364.73 56.30 364.23 40.11
  Q 364.21 39.48 363.61 39.69
  Q 342.25 46.94 327.91 65.12
  Q 327.57 65.54 327.55 66.09
  Q 327.05 79.72 320.92 92.55
  Z
  M 240.03 106.34
  L 255.31 111.42
  A 2.40 2.35 -44.4 0 0 256.84 111.42
  Q 265.82 108.35 275.80 105.15
  Q 282.76 102.91 290.49 106.26
  Q 291.00 106.48 291.43 106.12
  C 307.08 92.90 315.25 74.60 311.81 54.05
  C 310.99 49.16 307.20 46.66 302.26 46.92
  C 280.03 48.09 260.00 64.23 251.65 83.54
  Q 250.58 86.01 248.78 87.44
  Q 246.03 89.63 242.05 88.62
  C 238.13 87.02 235.75 83.18 237.25 79.12
  C 239.35 73.42 242.57 67.99 246.31 62.87
  Q 246.71 62.33 246.20 61.88
  Q 229.84 47.26 208.00 46.92
  C 203.16 46.85 200.70 50.21 200.05 54.81
  C 197.27 74.61 204.15 93.74 219.56 106.79
  Q 219.97 107.14 220.44 106.87
  Q 227.21 102.99 235.17 104.95
  Q 237.51 105.53 240.03 106.34
  Z
  M 146.42 130.20
  Q 146.79 130.34 146.97 129.98
  Q 153.22 117.25 163.23 107.62
  Q 163.75 107.13 163.74 106.42
  Q 163.68 100.11 163.71 93.20
  C 163.73 88.38 158.61 84.85 154.56 88.32
  Q 145.63 95.98 137.18 103.14
  Q 135.40 104.65 132.97 104.81
  Q 121.78 105.55 110.37 106.26
  C 105.61 106.55 103.49 112.23 106.75 115.64
  Q 111.39 120.50 116.07 125.31
  Q 116.44 125.70 116.97 125.67
  Q 131.81 124.80 146.42 130.20
  Z
  M 376.78 104.31
  Q 375.64 103.81 374.71 103.03
  Q 367.04 96.61 358.29 89.00
  C 355.95 86.97 353.38 86.15 350.55 88.16
  Q 348.35 89.74 348.33 92.74
  Q 348.27 99.81 348.27 106.53
  Q 348.27 107.12 348.70 107.53
  Q 358.88 117.42 364.93 129.79
  Q 365.20 130.35 365.79 130.13
  Q 380.14 124.83 394.96 125.66
  Q 395.58 125.69 396.01 125.24
  Q 400.54 120.54 405.13 115.78
  C 407.43 113.40 407.39 109.77 404.91 107.60
  Q 403.40 106.27 400.39 106.12
  Q 389.13 105.55 378.41 104.72
  A 5.15 5.11 -30.7 0 1 376.78 104.31
  Z
  M 185.84 153.42
  C 187.79 143.74 196.61 137.30 206.03 136.20
  Q 206.57 136.14 206.52 135.61
  Q 205.72 125.87 201.53 117.40
  C 198.54 111.37 195.21 105.39 187.01 109.30
  C 172.35 116.29 161.52 130.37 156.89 145.24
  Q 148.16 173.24 165.73 196.12
  A 0.54 0.53 -26.8 0 0 166.30 196.30
  Q 177.73 193.08 186.18 185.38
  Q 186.52 185.07 186.41 184.63
  Q 182.64 169.25 185.84 153.42
  Z
  M 353.00 139.65
  C 347.73 126.94 337.95 115.52 324.89 109.24
  C 318.35 106.09 314.39 109.64 311.52 115.19
  Q 306.21 125.47 305.48 135.52
  Q 305.44 136.10 306.01 136.20
  Q 323.01 139.15 326.39 155.04
  Q 329.28 168.56 325.46 184.45
  Q 325.33 184.96 325.72 185.31
  Q 334.31 193.10 345.61 196.27
  Q 346.11 196.41 346.43 195.99
  Q 365.66 170.19 353.00 139.65
  Z
  M 281.39 139.98
  C 283.49 135.88 285.04 131.01 286.63 126.94
  C 288.36 122.51 284.42 118.02 279.87 119.56
  Q 269.36 123.11 258.10 126.76
  A 6.96 6.90 44.9 0 1 253.79 126.75
  Q 244.47 123.67 234.71 120.36
  Q 231.13 119.15 229.66 119.34
  C 226.52 119.74 223.86 123.28 225.15 126.49
  Q 227.65 132.73 230.25 139.30
  Q 230.46 139.84 231.01 140.03
  Q 245.33 144.97 256.39 155.15
  Q 256.86 155.58 257.33 155.16
  Q 267.87 145.80 280.64 140.66
  Q 281.15 140.46 281.39 139.98
  Z
  M 148.82 197.86
  C 138.99 182.06 136.75 163.26 141.38 144.92
  A 0.59 0.57 -72.9 0 0 141.03 144.24
  Q 121.70 136.96 101.07 144.09
  C 96.95 145.52 94.07 148.84 95.07 153.35
  C 100.89 179.41 121.79 197.00 148.42 198.52
  Q 149.26 198.57 148.82 197.86
  Z
  M 370.60 144.76
  C 375.20 163.13 373.05 182.16 363.18 197.90
  Q 362.79 198.52 363.52 198.49
  C 389.63 197.45 412.03 178.71 416.94 153.09
  C 417.73 148.94 415.22 145.68 411.43 144.30
  Q 390.90 136.83 370.86 144.27
  A 0.42 0.41 -17.2 0 0 370.60 144.76
  Z
  M 233.44 219.15
  C 230.34 200.71 235.14 181.85 246.54 166.94
  A 0.42 0.42 0.0 0 0 246.49 166.38
  Q 230.68 152.09 209.31 151.14
  C 203.52 150.88 200.84 153.69 200.03 159.33
  C 196.32 184.87 209.57 208.58 233.03 219.46
  Q 233.53 219.70 233.44 219.15
  Z
  M 283.58 155.71
  C 257.56 167.97 241.40 194.49 249.73 223.43
  A 0.95 0.94 84.5 0 0 250.55 224.11
  Q 265.57 225.48 278.30 218.95
  C 301.24 207.18 316.02 184.69 311.86 158.53
  C 311.06 153.48 307.27 150.85 302.20 151.15
  Q 291.95 151.77 283.58 155.71
  Z
  M 283.94 262.39
  C 291.59 252.06 300.48 244.19 311.17 237.89
  A 2.03 2.01 87.4 0 0 311.94 237.04
  L 327.19 205.29
  A 0.40 0.39 -60.1 0 0 327.06 204.79
  L 319.67 199.87
  Q 319.39 199.69 319.23 199.97
  C 307.88 219.82 287.37 235.81 264.13 238.79
  Q 263.50 238.87 263.50 239.50
  L 263.50 296.01
  Q 263.50 296.51 264.01 296.51
  L 282.73 296.52
  Q 283.36 296.52 283.64 295.94
  L 291.86 278.84
  A 0.68 0.68 0.0 0 0 291.54 277.93
  C 285.28 274.89 277.92 270.52 283.94 262.39
  Z
  M 192.21 200.47
  Q 192.02 200.13 191.69 200.34
  L 184.94 204.75
  A 0.40 0.40 0.0 0 0 184.79 205.26
  L 200.05 237.02
  A 2.22 2.18 2.7 0 0 200.92 237.96
  Q 216.83 247.17 228.04 262.35
  Q 229.55 264.38 230.08 266.61
  C 231.57 272.88 224.27 275.74 220.21 278.21
  A 0.37 0.37 0.0 0 0 220.07 278.69
  L 228.37 295.95
  Q 228.64 296.51 229.26 296.51
  L 247.99 296.52
  Q 248.50 296.52 248.50 296.01
  L 248.50 239.54
  Q 248.50 239.05 248.01 238.98
  Q 210.71 233.73 192.21 200.47
  Z
  M 184.30 246.43
  Q 151.89 233.14 119.87 247.47
  Q 119.33 247.71 119.73 248.15
  C 142.98 273.34 179.81 280.49 211.04 266.03
  Q 211.55 265.80 211.17 265.39
  Q 199.83 252.80 184.30 246.43
  Z
  M 391.98 247.50
  Q 375.99 239.93 359.05 240.09
  Q 326.70 240.39 303.61 262.37
  Q 302.15 263.76 300.92 265.34
  Q 300.56 265.80 301.09 266.05
  C 331.16 280.36 369.80 273.45 392.13 248.22
  Q 392.54 247.76 391.98 247.50
  Z
  M 184.08 288.67
  C 177.19 297.92 172.32 308.63 170.28 319.99
  A 0.28 0.28 0.0 0 0 170.59 320.32
  Q 186.44 318.68 199.91 311.23
  Q 200.42 310.95 200.51 310.38
  Q 202.04 300.36 211.71 297.12
  Q 212.21 296.95 211.98 296.48
  L 206.30 284.68
  Q 206.03 284.11 205.44 284.30
  Q 195.27 287.45 184.97 288.19
  Q 184.41 288.23 184.08 288.67
  Z
  M 305.68 284.70
  L 300.08 296.36
  A 0.58 0.58 0.0 0 0 300.41 297.16
  Q 310.07 300.50 311.51 310.51
  Q 311.57 310.93 311.95 311.14
  Q 325.64 318.69 341.13 320.30
  Q 341.82 320.37 341.68 319.69
  Q 338.35 302.72 327.98 288.75
  A 1.37 1.37 0.0 0 0 326.96 288.19
  Q 316.91 287.48 306.55 284.30
  Q 305.96 284.12 305.68 284.70
  Z
  M 256.60 343.58
  C 245.84 343.58 246.04 328.59 256.27 328.58
  Q 276.29 328.57 296.00 328.57
  Q 296.58 328.57 296.58 327.99
  L 296.58 311.93
  A 0.41 0.41 0.0 0 0 296.17 311.52
  L 215.95 311.51
  A 0.55 0.55 0.0 0 0 215.40 312.06
  L 215.40 328.14
  A 0.45 0.44 89.4 0 0 215.85 328.59
  Q 219.77 328.54 223.61 328.61
  C 233.87 328.79 233.68 343.99 222.64 343.63
  Q 219.24 343.52 215.92 343.59
  Q 215.39 343.60 215.39 344.13
  L 215.40 360.05
  A 0.65 0.64 -0.0 0 0 216.05 360.69
  L 295.95 360.68
  Q 296.58 360.68 296.58 360.05
  L 296.58 344.20
  Q 296.58 343.61 295.99 343.61
  Q 277.57 343.58 256.60 343.58
  Z"
/>
<path fill="#ff7e92" d="
  M 285.32 26.04
  Q 283.42 30.96 281.50 35.60
  Q 281.27 36.16 280.70 36.39
  Q 267.68 41.66 257.30 50.95
  Q 256.86 51.34 256.44 50.95
  Q 245.47 40.81 231.11 35.82
  Q 230.48 35.60 230.24 34.99
  Q 227.61 28.49 225.20 22.30
  C 223.49 17.90 228.08 13.92 232.34 15.36
  Q 243.04 18.97 253.54 22.42
  A 7.89 7.85 -44.8 0 0 258.49 22.42
  Q 268.67 19.06 279.73 15.33
  C 283.23 14.16 286.53 16.35 287.04 19.92
  C 287.34 21.94 286.06 24.16 285.32 26.04
  Z"
/>
<path fill="#98db7c" d="
  M 148.38 39.73
  C 162.35 44.07 174.92 53.52 184.04 65.03
  A 1.89 1.85 -65.6 0 1 184.44 66.13
  Q 184.83 79.46 190.52 92.44
  Q 190.79 93.06 190.12 93.10
  Q 184.68 93.49 179.33 96.46
  Q 178.59 96.87 178.64 96.02
  C 179.17 86.90 176.17 79.19 168.04 74.65
  Q 161.57 71.04 154.19 72.42
  A 0.53 0.52 -16.1 0 1 153.60 72.10
  Q 147.19 56.21 147.79 40.15
  Q 147.81 39.55 148.38 39.73
  Z"
/>
<path fill="#98db7c" d="
  M 320.92 92.55
  Q 327.05 79.72 327.55 66.09
  Q 327.57 65.54 327.91 65.12
  Q 342.25 46.94 363.61 39.69
  Q 364.21 39.48 364.23 40.11
  Q 364.73 56.30 358.48 71.90
  Q 358.26 72.44 357.69 72.35
  Q 346.14 70.64 338.45 79.04
  C 334.16 83.73 333.05 89.72 333.36 96.01
  A 0.49 0.48 13.5 0 1 332.63 96.45
  Q 327.06 93.35 321.19 93.02
  Q 320.71 92.99 320.92 92.55
  Z"
/>
<path fill="#ff7e92" d="
  M 242.05 88.62
  Q 239.93 97.27 240.03 106.34
  Q 237.51 105.53 235.17 104.95
  Q 227.21 102.99 220.44 106.87
  Q 219.97 107.14 219.56 106.79
  C 204.15 93.74 197.27 74.61 200.05 54.81
  C 200.70 50.21 203.16 46.85 208.00 46.92
  Q 229.84 47.26 246.20 61.88
  Q 246.71 62.33 246.31 62.87
  C 242.57 67.99 239.35 73.42 237.25 79.12
  C 235.75 83.18 238.13 87.02 242.05 88.62
  Z"
/>
<path fill="#ff5f7a" d="
  M 240.03 106.34
  Q 239.93 97.27 242.05 88.62
  Q 246.03 89.63 248.78 87.44
  Q 250.58 86.01 251.65 83.54
  C 260.00 64.23 280.03 48.09 302.26 46.92
  C 307.20 46.66 310.99 49.16 311.81 54.05
  C 315.25 74.60 307.08 92.90 291.43 106.12
  Q 291.00 106.48 290.49 106.26
  Q 282.76 102.91 275.80 105.15
  Q 265.82 108.35 256.84 111.42
  A 2.40 2.35 -44.4 0 1 255.31 111.42
  L 240.03 106.34
  Z"
/>
<path fill="#ff7e92" d="
  M 146.42 130.20
  Q 131.81 124.80 116.97 125.67
  Q 116.44 125.70 116.07 125.31
  Q 111.39 120.50 106.75 115.64
  C 103.49 112.23 105.61 106.55 110.37 106.26
  Q 121.78 105.55 132.97 104.81
  Q 135.40 104.65 137.18 103.14
  Q 145.63 95.98 154.56 88.32
  C 158.61 84.85 163.73 88.38 163.71 93.20
  Q 163.68 100.11 163.74 106.42
  Q 163.75 107.13 163.23 107.62
  Q 153.22 117.25 146.97 129.98
  Q 146.79 130.34 146.42 130.20
  Z"
/>
<path fill="#ff7e92" d="
  M 376.78 104.31
  A 5.15 5.11 -30.7 0 0 378.41 104.72
  Q 389.13 105.55 400.39 106.12
  Q 403.40 106.27 404.91 107.60
  C 407.39 109.77 407.43 113.40 405.13 115.78
  Q 400.54 120.54 396.01 125.24
  Q 395.58 125.69 394.96 125.66
  Q 380.14 124.83 365.79 130.13
  Q 365.20 130.35 364.93 129.79
  Q 358.88 117.42 348.70 107.53
  Q 348.27 107.12 348.27 106.53
  Q 348.27 99.81 348.33 92.74
  Q 348.35 89.74 350.55 88.16
  C 353.38 86.15 355.95 86.97 358.29 89.00
  Q 367.04 96.61 374.71 103.03
  Q 375.64 103.81 376.78 104.31
  Z"
/>
<path fill="#ff5f7a" d="
  M 206.03 136.20
  C 196.61 137.30 187.79 143.74 185.84 153.42
  Q 182.64 169.25 186.41 184.63
  Q 186.52 185.07 186.18 185.38
  Q 177.73 193.08 166.30 196.30
  A 0.54 0.53 -26.8 0 1 165.73 196.12
  Q 148.16 173.24 156.89 145.24
  C 161.52 130.37 172.35 116.29 187.01 109.30
  C 195.21 105.39 198.54 111.37 201.53 117.40
  Q 205.72 125.87 206.52 135.61
  Q 206.57 136.14 206.03 136.20
  Z"
/>
<path fill="#ff7e92" d="
  M 353.00 139.65
  Q 365.66 170.19 346.43 195.99
  Q 346.11 196.41 345.61 196.27
  Q 334.31 193.10 325.72 185.31
  Q 325.33 184.96 325.46 184.45
  Q 329.28 168.56 326.39 155.04
  Q 323.01 139.15 306.01 136.20
  Q 305.44 136.10 305.48 135.52
  Q 306.21 125.47 311.52 115.19
  C 314.39 109.64 318.35 106.09 324.89 109.24
  C 337.95 115.52 347.73 126.94 353.00 139.65
  Z"
/>
<path fill="#ff7e92" d="
  M 286.63 126.94
  C 285.04 131.01 283.49 135.88 281.39 139.98
  Q 281.15 140.46 280.64 140.66
  Q 267.87 145.80 257.33 155.16
  Q 256.86 155.58 256.39 155.15
  Q 245.33 144.97 231.01 140.03
  Q 230.46 139.84 230.25 139.30
  Q 227.65 132.73 225.15 126.49
  C 223.86 123.28 226.52 119.74 229.66 119.34
  Q 231.13 119.15 234.71 120.36
  Q 244.47 123.67 253.79 126.75
  A 6.96 6.90 44.9 0 0 258.10 126.76
  Q 269.36 123.11 279.87 119.56
  C 284.42 118.02 288.36 122.51 286.63 126.94
  Z"
/>
<path fill="#ff7e92" d="
  M 141.38 144.92
  C 136.75 163.26 138.99 182.06 148.82 197.86
  Q 149.26 198.57 148.42 198.52
  C 121.79 197.00 100.89 179.41 95.07 153.35
  C 94.07 148.84 96.95 145.52 101.07 144.09
  Q 121.70 136.96 141.03 144.24
  A 0.59 0.57 -72.9 0 1 141.38 144.92
  Z"
/>
<path fill="#ff5f7a" d="
  M 363.18 197.90
  C 373.05 182.16 375.20 163.13 370.60 144.76
  A 0.42 0.41 -17.2 0 1 370.86 144.27
  Q 390.90 136.83 411.43 144.30
  C 415.22 145.68 417.73 148.94 416.94 153.09
  C 412.03 178.71 389.63 197.45 363.52 198.49
  Q 362.79 198.52 363.18 197.90
  Z"
/>
<path fill="#ff7e92" d="
  M 246.54 166.94
  C 235.14 181.85 230.34 200.71 233.44 219.15
  Q 233.53 219.70 233.03 219.46
  C 209.57 208.58 196.32 184.87 200.03 159.33
  C 200.84 153.69 203.52 150.88 209.31 151.14
  Q 230.68 152.09 246.49 166.38
  A 0.42 0.42 0.0 0 1 246.54 166.94
  Z"
/>
<path fill="#ff5f7a" d="
  M 283.58 155.71
  Q 291.95 151.77 302.20 151.15
  C 307.27 150.85 311.06 153.48 311.86 158.53
  C 316.02 184.69 301.24 207.18 278.30 218.95
  Q 265.57 225.48 250.55 224.11
  A 0.95 0.94 84.5 0 1 249.73 223.43
  C 241.40 194.49 257.56 167.97 283.58 155.71
  Z"
/>
<path fill="#98db7c" d="
  M 283.94 262.39
  C 277.92 270.52 285.28 274.89 291.54 277.93
  A 0.68 0.68 0.0 0 1 291.86 278.84
  L 283.64 295.94
  Q 283.36 296.52 282.73 296.52
  L 264.01 296.51
  Q 263.50 296.51 263.50 296.01
  L 263.50 239.50
  Q 263.50 238.87 264.13 238.79
  C 287.37 235.81 307.88 219.82 319.23 199.97
  Q 319.39 199.69 319.67 199.87
  L 327.06 204.79
  A 0.40 0.39 -60.1 0 1 327.19 205.29
  L 311.94 237.04
  A 2.03 2.01 87.4 0 1 311.17 237.89
  C 300.48 244.19 291.59 252.06 283.94 262.39
  Z"
/>
<path fill="#98db7c" d="
  M 192.21 200.47
  Q 210.71 233.73 248.01 238.98
  Q 248.50 239.05 248.50 239.54
  L 248.50 296.01
  Q 248.50 296.52 247.99 296.52
  L 229.26 296.51
  Q 228.64 296.51 228.37 295.95
  L 220.07 278.69
  A 0.37 0.37 0.0 0 1 220.21 278.21
  C 224.27 275.74 231.57 272.88 230.08 266.61
  Q 229.55 264.38 228.04 262.35
  Q 216.83 247.17 200.92 237.96
  A 2.22 2.18 2.7 0 1 200.05 237.02
  L 184.79 205.26
  A 0.40 0.40 0.0 0 1 184.94 204.75
  L 191.69 200.34
  Q 192.02 200.13 192.21 200.47
  Z"
/>
<path fill="#98db7c" d="
  M 184.30 246.43
  Q 199.83 252.80 211.17 265.39
  Q 211.55 265.80 211.04 266.03
  C 179.81 280.49 142.98 273.34 119.73 248.15
  Q 119.33 247.71 119.87 247.47
  Q 151.89 233.14 184.30 246.43
  Z"
/>
<path fill="#98db7c" d="
  M 391.98 247.50
  Q 392.54 247.76 392.13 248.22
  C 369.80 273.45 331.16 280.36 301.09 266.05
  Q 300.56 265.80 300.92 265.34
  Q 302.15 263.76 303.61 262.37
  Q 326.70 240.39 359.05 240.09
  Q 375.99 239.93 391.98 247.50
  Z"
/>
<path fill="#77cc7d" d="
  M 170.28 319.99
  C 172.32 308.63 177.19 297.92 184.08 288.67
  Q 184.41 288.23 184.97 288.19
  Q 195.27 287.45 205.44 284.30
  Q 206.03 284.11 206.30 284.68
  L 211.98 296.48
  Q 212.21 296.95 211.71 297.12
  Q 202.04 300.36 200.51 310.38
  Q 200.42 310.95 199.91 311.23
  Q 186.44 318.68 170.59 320.32
  A 0.28 0.28 0.0 0 1 170.28 319.99
  Z"
/>
<path fill="#77cc7d" d="
  M 300.08 296.36
  L 305.68 284.70
  Q 305.96 284.12 306.55 284.30
  Q 316.91 287.48 326.96 288.19
  A 1.37 1.37 0.0 0 1 327.98 288.75
  Q 338.35 302.72 341.68 319.69
  Q 341.82 320.37 341.13 320.30
  Q 325.64 318.69 311.95 311.14
  Q 311.57 310.93 311.51 310.51
  Q 310.07 300.50 300.41 297.16
  A 0.58 0.58 0.0 0 1 300.08 296.36
  Z"
/>
<path fill="#f2d1ff" d="
  M 256.27 328.58
  C 246.04 328.59 245.84 343.58 256.60 343.58
  Q 277.57 343.58 295.99 343.61
  Q 296.58 343.61 296.58 344.20
  L 296.58 360.05
  Q 296.58 360.68 295.95 360.68
  L 216.05 360.69
  A 0.65 0.64 0.0 0 1 215.40 360.05
  L 215.39 344.13
  Q 215.39 343.60 215.92 343.59
  Q 219.24 343.52 222.64 343.63
  C 233.68 343.99 233.87 328.79 223.61 328.61
  Q 219.77 328.54 215.85 328.59
  A 0.45 0.44 89.4 0 1 215.40 328.14
  L 215.40 312.06
  A 0.55 0.55 0.0 0 1 215.95 311.51
  L 296.17 311.52
  A 0.41 0.41 0.0 0 1 296.58 311.93
  L 296.58 327.99
  Q 296.58 328.57 296.00 328.57
  Q 276.29 328.57 256.27 328.58
  Z"
/>
<path fill="#98db7c" d="
  M 248.31 463.80
  L 224.44 487.64
  L 230.97 376.06
  Q 230.99 375.68 231.37 375.68
  L 247.81 375.70
  Q 248.47 375.70 248.47 376.36
  L 248.31 463.80
  Z"
/>
<path fill="#98db7c" d="
  M 287.59 488.21
  L 263.67 464.27
  Q 263.71 464.07 263.63 463.92
  Q 263.57 463.78 263.57 463.63
  Q 263.44 420.04 263.49 376.24
  Q 263.49 375.69 264.04 375.69
  L 280.28 375.69
  Q 280.92 375.69 280.95 376.33
  L 287.59 488.21
  Z"
/>
</svg>
