<svg width="24" height="24" viewBox="0 0 24 24" fill="none" xmlns="http://www.w3.org/2000/svg">
<g id="fi-sr-thumbs-up" clip-path="url(#clip0_5_96)">
<path id="Vector" d="M22.7732 16.2786C22.3042 16.819 21.7247 17.2523 21.0737 17.5493C20.4228 17.8462 19.7156 17.9998 19.0002 17.9996L15.0112 17.9996L15.3472 20.0406C15.466 20.7594 15.3226 21.4969 14.943 22.1187C14.5634 22.7405 13.973 23.2051 13.2793 23.4278C12.5857 23.6506 11.8352 23.6165 11.1645 23.3319C10.4939 23.0474 9.94792 22.5312 9.62615 21.8776L8.00015 18.5826L8.00015 2.99962L18.3002 2.99962C19.5036 3.00455 20.6653 3.44132 21.574 4.23046C22.4826 5.01961 23.0777 6.10871 23.2512 7.29962L23.9562 12.2996C24.0558 13.0089 24.0018 13.7313 23.7977 14.4179C23.5936 15.1044 23.2441 15.739 22.7732 16.2786Z" fill="#9A2A2D"/>
<path id="Vector_2" d="M4.37114e-07 13L8.74228e-07 8C0.00158885 6.67441 0.528883 5.40356 1.46622 4.46622C2.40356 3.52888 3.67441 3.00159 5 3L6 3L6 18L5 18C3.67441 17.9984 2.40356 17.4711 1.46622 16.5338C0.528882 15.5964 0.00158818 14.3256 4.37114e-07 13H4.37114e-07Z" fill="#9A2A2D"/>
</g>
<defs>
<clipPath id="clip0_5_96">
<rect width="24" height="24" fill="white" transform="matrix(1 8.74228e-08 8.74228e-08 -1 0 24)"/>
</clipPath>
</defs>
</svg>
